<svg width="14" height="14" fill="none" xmlns="http://www.w3.org/2000/svg"><path d="M7 1.262c1.869 0 2.09.007 2.83.04 1.896.087 2.782.987 2.869 2.87.033.738.04.96.04 2.829 0 1.87-.007 2.09-.04 2.828-.087 1.881-.971 2.783-2.87 2.87-.738.033-.959.04-2.829.04-1.869 0-2.09-.007-2.829-.04-1.901-.087-2.783-.992-2.869-2.87-.034-.738-.04-.96-.04-2.829 0-1.869.007-2.09.04-2.829.087-1.882.97-2.783 2.87-2.869.738-.033.959-.04 2.828-.04zM7 0C5.099 0 4.86.008 4.114.042 1.572.159.16 1.569.043 4.114.008 4.86 0 5.099 0 7c0 1.901.008 2.14.042 2.886.117 2.543 1.527 3.955 4.072 4.072.747.034.985.042 2.886.042 1.901 0 2.14-.008 2.886-.042 2.54-.117 3.957-1.527 4.071-4.072C13.992 9.14 14 8.901 14 7c0-1.901-.008-2.14-.042-2.886C13.844 1.574 12.431.16 9.887.043 9.14.008 8.9 0 7 0zm0 3.405a3.595 3.595 0 100 7.19 3.595 3.595 0 000-7.19zm0 5.928a2.333 2.333 0 110-4.666 2.333 2.333 0 010 4.666zm3.737-6.91a.84.84 0 100 1.681.84.84 0 000-1.68z" fill="#fff"/></svg>