<svg width="10" height="16" fill="none" xmlns="http://www.w3.org/2000/svg"><path d="M4.212 11.27c-1.24-.13-2.358-.435-3.316-1.184-.119-.093-.241-.183-.35-.287-.419-.402-.461-.863-.13-1.338.284-.407.76-.516 1.256-.282.095.045.187.101.274.162 1.785 1.226 4.236 1.26 6.027.055.178-.136.367-.247.587-.303a.922.922 0 011.056.42c.262.428.259.845-.064 1.177a4.87 4.87 0 01-1.753 1.133c-.626.242-1.312.364-1.99.445.102.112.15.167.214.231.922.926 1.847 1.848 2.765 2.776.313.316.379.709.206 1.077-.188.402-.61.666-1.023.638-.262-.018-.466-.148-.648-.331-.695-.7-1.403-1.386-2.084-2.1-.199-.207-.294-.167-.469.013-.7.72-1.41 1.429-2.125 2.134-.321.316-.703.373-1.076.192-.396-.191-.647-.596-.628-1.002.013-.274.148-.484.337-.672.912-.91 1.821-1.823 2.73-2.735.06-.061.117-.125.204-.219z" fill="#fff"/><path d="M4.968 8.099C2.755 8.09.941 6.257.954 4.04A4.056 4.056 0 015.017 0c2.239.006 4.036 1.838 4.025 4.102-.012 2.212-1.839 4.004-4.074 3.997zm2.011-4.053a1.972 1.972 0 00-1.978-1.978A1.975 1.975 0 003.017 4.07a1.972 1.972 0 001.994 1.962 1.968 1.968 0 001.968-1.986z" fill="#fff"/></svg>