<svg width="49" height="221" fill="none" xmlns="http://www.w3.org/2000/svg"><path d="M2.143 130.5l-1.997-.117 1.997.117zm6 27.5l-1.696 1.06L8.143 158zm19.5 35l1.97-.34-1.97.34zm3.494 27.653c.088-1.152.164-2.764.194-4.715l-4-.063a76.63 76.63 0 01-.183 4.472l3.989.306zm.18-9.388a137.68 137.68 0 00-.508-9.32l-3.984.356c.29 3.246.437 6.325.493 9.046l4-.082zm-1.01-13.969a107.789 107.789 0 00-.694-4.636l-3.941.68c.257 1.491.478 2.984.667 4.463l3.968-.507zm-.694-4.636c-.392-2.279-1.057-4.575-1.9-6.837l-3.749 1.398c.777 2.082 1.366 4.135 1.708 6.119l3.941-.68zm-4.737-13.201c-2.166-4.224-4.745-8.246-7.16-11.719l-3.283 2.284c2.357 3.39 4.829 7.251 6.883 11.26l3.56-1.825zm-11.152-17.232c-1.92-2.568-3.292-4.338-3.885-5.287l-3.392 2.12c.71 1.138 2.275 3.156 4.074 5.562l3.203-2.395zM9.84 156.94c-.72-1.151-1.52-2.379-2.318-3.968l-3.574 1.797c.901 1.792 1.817 3.2 2.5 4.291l3.392-2.12zm-4.003-8.102c-.746-2.331-1.367-5.235-1.658-8.932l-3.988.314c.314 3.983.99 7.193 1.837 9.838l3.81-1.22zM4 135.282a77.444 77.444 0 01.14-4.665l-3.994-.234A81.391 81.391 0 000 135.288l4-.006zm.14-4.665c.086-1.472.343-3.039.75-4.679l-3.882-.964c-.455 1.831-.758 3.645-.862 5.409l3.993.234zm2.223-9.329c1.12-2.957 2.587-5.997 4.247-8.987l-3.497-1.941c-1.729 3.113-3.286 6.331-4.49 9.511l3.74 1.417zm6.794-13.31a125.22 125.22 0 015.673-8.326l-3.214-2.38a129.386 129.386 0 00-5.856 8.593l3.397 2.113zm8.751-12.318a99.287 99.287 0 013.228-3.83l-2.986-2.66a103.21 103.21 0 00-3.36 3.985l3.118 2.505zm3.228-3.83a274.893 274.893 0 003.63-4.134l-3.037-2.603a271.088 271.088 0 01-3.58 4.076l2.987 2.662zm7.162-8.402c2.14-2.688 4.39-5.726 6.514-9.025l-3.364-2.165c-2.034 3.16-4.2 6.087-6.28 8.7l3.13 2.49zm9.39-13.828c1.798-3.246 3.404-6.696 4.625-10.282l-3.787-1.29c-1.13 3.32-2.63 6.552-4.337 9.635l3.5 1.937zm6.149-15.776c.397-1.87.673-3.77.801-5.691l-3.991-.266a36.271 36.271 0 01-.723 5.126l3.913.831zm.801-5.691c.125-1.873.128-3.762.03-5.65l-3.995.208a43.677 43.677 0 01-.026 5.176l3.991.266zm-.54-11.229c-.552-3.69-1.426-7.34-2.482-10.835l-3.83 1.158c1.012 3.344 1.837 6.803 2.355 10.269l3.957-.592zm-4.235-16.08a115.217 115.217 0 00-4.29-10.155l-3.608 1.728a111.212 111.212 0 014.14 9.8l3.758-1.372zm-6.78-15.067A102.22 102.22 0 0034.35.96l-3.417 2.08a98.32 98.32 0 012.624 4.607l3.525-1.89z" fill="#0D3351"/></svg>