<svg width="11" height="12" fill="none" xmlns="http://www.w3.org/2000/svg"><path d="M.273 10.09h1.909v1.637a.264.264 0 00.273.273h1.423a.269.269 0 00.273-.273v-1.636h4.304a.268.268 0 00.196-.077.265.265 0 00.076-.196v-1.09a.265.265 0 00-.076-.197.265.265 0 00-.196-.077H4.15V7.45h2.898c1.136 0 2.064-.347 2.783-1.04.719-.693 1.078-1.588 1.078-2.685 0-1.096-.36-1.99-1.078-2.684C9.112.347 8.184 0 7.048 0H2.455a.266.266 0 00-.196.077.266.266 0 00-.077.196v5.36H.272A.27.27 0 000 5.907v1.27a.265.265 0 00.273.273h1.91v1.005H.272a.265.265 0 00-.195.077.265.265 0 00-.077.196v1.091c0 .08.025.145.077.196a.265.265 0 00.196.077zM4.15 1.817h2.728c.602 0 1.088.176 1.457.528.37.352.554.813.554 1.38 0 .569-.185 1.03-.554 1.381-.37.353-.855.529-1.457.529H4.15V1.816z" fill="#34C7FD"/></svg>