<svg width="18" height="12" fill="none" xmlns="http://www.w3.org/2000/svg"><path d="M9.871 11.245c.457 0 .644-.304.639-.686-.024-1.438.535-2.211 1.544-1.203 1.116 1.116 1.347 1.89 2.702 1.89h2.4c.606 0 .845-.196.845-.502 0-.647-1.066-1.789-1.969-2.627-1.264-1.174-1.324-1.202-.235-2.615C17.148 3.748 18.915 1.5 17.352 1.5h-2.986c-.579 0-.62.326-.827.812-.746 1.76-2.165 4.04-2.703 3.692-.563-.364-.305-1.805-.263-3.946.012-.565.009-.953-.855-1.154A6.052 6.052 0 008.36.75c-1.705 0-2.88.715-2.213.84 1.179.219 1.066 2.768.791 3.87-.478 1.915-2.276-1.52-3.025-3.23-.181-.41-.236-.73-.881-.73H.59c-.369 0-.59.12-.59.387 0 .451 2.22 5.04 4.34 7.327 2.067 2.232 4.11 2.031 5.531 2.031z" fill="#fff"/></svg>