<svg width="70" height="70" fill="none" xmlns="http://www.w3.org/2000/svg"><path fill-rule="evenodd" clip-rule="evenodd" d="M36 59.2c13.365 0 24.2-10.835 24.2-24.2 0-13.365-10.835-24.2-24.2-24.2-13.365 0-24.2 10.835-24.2 24.2 0 13.365 10.835 24.2 24.2 24.2zm0 .8c13.807 0 25-11.193 25-25S49.807 10 36 10 11 21.193 11 35s11.193 25 25 25z" fill="#37C8FD"/><path fill-rule="evenodd" clip-rule="evenodd" d="M36.5 49C44.508 49 51 42.508 51 34.5S44.508 20 36.5 20 22 26.492 22 34.5 28.492 49 36.5 49zm0 1C45.06 50 52 43.06 52 34.5 52 25.94 45.06 19 36.5 19 27.94 19 21 25.94 21 34.5 21 43.06 27.94 50 36.5 50z" fill="#37C8FD"/><path fill-rule="evenodd" clip-rule="evenodd" d="M25.844 45.509l-.34-.367L36.25 34.397v2.166L25.844 45.51zm4.705-4.705l5.201-4.47v-.73l-5.2 5.2z" fill="#37C8FD"/><path d="M34.539 35.013L25.5 45.5 36 35l-1.461.013z" fill="#37C8FD"/><path fill-rule="evenodd" clip-rule="evenodd" d="M25.31 45.337l.367.34 10.932-10.932-2.185.019-9.113 10.573zm4.787-4.787l4.557-5.288.737-.007-5.294 5.295z" fill="#37C8FD"/><path d="M36.013 36.461L46.5 45.5 36 35l.013 1.461z" fill="#37C8FD"/><path fill-rule="evenodd" clip-rule="evenodd" d="M46.337 45.69l.34-.367-10.932-10.932.019 2.185 10.573 9.113zm-4.787-4.786l-5.288-4.558-.007-.737 5.295 5.294z" fill="#37C8FD"/><path d="M37.461 34.987L46.5 24.5 36 35l1.461-.013z" fill="#37C8FD"/><path fill-rule="evenodd" clip-rule="evenodd" d="M46.69 24.663l-.367-.34-10.932 10.932 2.185-.019 9.113-10.573zm-4.786 4.787l-4.558 5.288-.737.007 5.294-5.295z" fill="#37C8FD"/><path d="M35.987 33.539L25.5 24.5 36 35l-.013-1.461z" fill="#37C8FD"/><path fill-rule="evenodd" clip-rule="evenodd" d="M25.663 24.31l-.34.367 10.932 10.932-.019-2.185-10.573-9.113zm4.787 4.787l5.288 4.557.007.737-5.295-5.294z" fill="#37C8FD"/><path fill-rule="evenodd" clip-rule="evenodd" d="M46.509 45.156l-.367.34L35.397 34.75h2.166l8.946 10.406zm-4.705-4.705l-4.47-5.201h-.73l5.2 5.201z" fill="#37C8FD"/><path fill-rule="evenodd" clip-rule="evenodd" d="M46.156 24.491l.34.367L35.75 35.604v-2.167l10.406-8.945zm-4.705 4.704l-5.201 4.471v.73l5.201-5.2z" fill="#37C8FD"/><path fill-rule="evenodd" clip-rule="evenodd" d="M25.672 25.025l.367-.34 10.746 10.746h-2.167l-8.946-10.406zm4.704 4.705l4.471 5.201h.73l-5.2-5.2z" fill="#37C8FD"/><path fill-rule="evenodd" clip-rule="evenodd" d="M7.481 35.25l.019-.5h29.104l-2.508 2.508L7.48 35.249zm6.653 0l19.77 1.492 1.492-1.492H14.134z" fill="#37C8FD"/><path d="M33.965 33L7 35h29l-2.035-2z" fill="#37C8FD"/><path fill-rule="evenodd" clip-rule="evenodd" d="M6.982 34.75l.018.5h29.611l-2.552-2.508-27.077 2.009zm6.769 0l20.12-1.492 1.518 1.492H13.75z" fill="#37C8FD"/><path d="M34 37.035L36 64V35l-2 2.035z" fill="#37C8FD"/><path fill-rule="evenodd" clip-rule="evenodd" d="M35.75 64.019l.5-.019V34.389l-2.508 2.552 2.009 27.078zm0-6.77l-1.492-20.12 1.492-1.518V57.25z" fill="#37C8FD"/><path d="M38.035 37L65 35H36l2.035 2z" fill="#37C8FD"/><path fill-rule="evenodd" clip-rule="evenodd" d="M65.019 35.25l-.019-.5H35.389l2.552 2.508 27.078-2.009zm-6.77 0l-20.12 1.492-1.518-1.492H58.25z" fill="#37C8FD"/><path d="M38 32.965L36 6v29l2-2.035z" fill="#37C8FD"/><path fill-rule="evenodd" clip-rule="evenodd" d="M36.25 5.981l-.5.019v29.611l2.508-2.552-2.009-27.078zm0 6.77l1.492 20.12-1.492 1.518V12.75z" fill="#37C8FD"/><path fill-rule="evenodd" clip-rule="evenodd" d="M36.25 63.519l-.5-.019V34.396l2.508 2.508-2.009 26.615zm0-6.653l1.492-19.77-1.492-1.492v21.262z" fill="#37C8FD"/><path fill-rule="evenodd" clip-rule="evenodd" d="M64.519 34.75l-.019.5H35.396l2.508-2.508 26.615 2.009zm-6.653 0l-19.77-1.492-1.492 1.492h21.262z" fill="#37C8FD"/><path fill-rule="evenodd" clip-rule="evenodd" d="M35.75 6.981l.5.019v29.103l-2.508-2.507L35.751 6.98zm0 6.653l-1.492 19.77 1.492 1.492V13.634zm-6.836 4.844l-2.016-4.264.904-.428 2.016 4.265-.904.427zm12.973-.725l2.602-3.935.834.552-2.602 3.934-.834-.551zm6.14 3.969l3.415-3.254.69.724-3.415 3.254-.69-.724zm-24.481.963l-3.34-3.33.706-.71 3.34 3.332-.706.708zm28.549 4.511l4.315-1.906.404.914-4.315 1.907-.404-.915zm-32.36 1.728l-4-2.5.53-.848 4 2.5-.53.848zm32.432 11.264l4 2.5-.53.848-4-2.5.53-.848zm-32.36 1.728l-4.315 1.907-.404-.915 4.315-1.906.404.914zm28.549 4.512l3.34 3.33-.706.708-3.34-3.33.706-.708zm-24.481.962l-3.415 3.255-.69-.725 3.415-3.254.69.724zm19.112 3.244l2.016 4.264-.904.428-2.016-4.265.904-.427zm-12.972.725l-2.602 3.935-.834-.551 2.601-3.935.835.551z" fill="#37C8FD"/><path d="M6.6 32.74L5.262 37H4.41l-1.092-2.91L2.25 37h-.858L.06 32.74h.93l.912 3.024.966-3.024h.894l.996 3.018.9-3.018H6.6zm30.382 33.116a1.532 1.532 0 00-.426-.252 2.019 2.019 0 00-.342-.12 1.507 1.507 0 00-.378-.048c-.228 0-.398.042-.51.126a.417.417 0 00-.168.354c0 .088.02.162.06.222a.6.6 0 00.186.15c.08.044.18.084.3.12.124.036.266.074.426.114.208.056.396.116.564.18.172.064.316.144.432.24a.97.97 0 01.276.348c.064.132.096.296.096.492 0 .228-.044.424-.132.588-.084.16-.2.29-.348.39-.144.1-.312.174-.504.222a2.6 2.6 0 01-.594.066c-.32 0-.636-.048-.948-.144a2.927 2.927 0 01-.84-.408l.366-.714c.036.036.1.084.192.144.096.056.208.114.336.174.128.056.27.104.426.144.156.04.316.06.48.06.456 0 .684-.146.684-.438a.36.36 0 00-.078-.234.662.662 0 00-.222-.168 2.125 2.125 0 00-.348-.132l-.456-.132a4.363 4.363 0 01-.534-.18 1.52 1.52 0 01-.372-.234.95.95 0 01-.228-.312 1.144 1.144 0 01-.072-.426c0-.216.04-.408.12-.576.08-.168.19-.308.33-.42a1.5 1.5 0 01.498-.252 2.308 2.308 0 011.434.054c.252.092.472.202.66.33l-.366.672zm32.42-29.582V37h-2.958v-4.26h2.904v.726h-2.076v1.026h1.794v.672h-1.794v1.11h2.13zM35.272 2.27V5h-.828V.74h.642l2.22 2.796V.746h.828V5h-.672l-2.19-2.73z" fill="#37C8FD"/></svg>