<svg width="16" height="18" fill="none" xmlns="http://www.w3.org/2000/svg"><path d="M2.489 0h1.08l.741 2.776L4.997 0h1.09L4.84 4.129v2.818H3.765V4.129L2.49 0zm4.946 1.78c-.84 0-1.396.555-1.396 1.376v2.512c0 .903.472 1.373 1.396 1.373.766 0 1.369-.512 1.369-1.373V3.156c0-.802-.598-1.376-1.37-1.376zm.398 3.845c0 .279-.143.484-.4.484-.263 0-.415-.215-.415-.484V3.241c0-.28.13-.489.397-.489.292 0 .418.202.418.489v2.384zm3.546-3.803v3.89c-.116.146-.374.384-.56.384-.203 0-.253-.14-.253-.345V1.822h-.953v4.283c0 .506.155.915.665.915.288 0 .689-.15 1.101-.64v.566h.953V1.823h-.953zm1.653 10.394c-.336 0-.406.236-.406.572v.495h.802v-.495c0-.33-.07-.572-.396-.572zm-3.527.03a.693.693 0 00-.188.149v3.04a.79.79 0 00.215.172c.148.075.364.08.464-.05.053-.069.08-.18.08-.337v-2.519c0-.165-.033-.29-.098-.375-.11-.145-.314-.16-.473-.08zm3.62-3.896c-1.953-.133-8.3-.133-10.25 0C.765 8.494.515 9.769.5 13.125c.016 3.35.262 4.631 2.375 4.775 1.95.133 8.297.133 10.25 0 2.11-.144 2.36-1.42 2.375-4.775-.016-3.35-.262-4.631-2.375-4.775zm-9.243 8.014H2.86V10.71H1.802v-.96h3.137v.96H3.88v5.655zm3.634 0H6.61v-.538c-.168.198-.341.35-.522.453-.49.281-1.16.274-1.16-.716v-4.078h.906v3.74c0 .197.047.33.242.33.177 0 .423-.228.533-.366v-3.704h.908v4.88zm3.493-1.01c0 .603-.226 1.073-.83 1.073-.332 0-.609-.122-.861-.438v.375h-.916V9.75h.916v2.13c.205-.25.483-.456.807-.456.664 0 .885.562.885 1.223v2.707h-.001zm3.353-1.315h-1.735v.921c0 .366.031.683.396.683.383 0 .405-.258.405-.683v-.339h.934v.367c0 .94-.403 1.51-1.36 1.51-.866 0-1.309-.632-1.309-1.51v-2.19c0-.848.56-1.436 1.378-1.436.87 0 1.29.553 1.29 1.435v1.242h.001z" fill="#fff"/></svg>